<svg width="20" height="20" viewBox="0 0 20 20" fill="none" xmlns="http://www.w3.org/2000/svg">
<path d="M7.02061 11.0049H13.0234V9.00488H15.0229C15.021 7.00245 15.0248 5.00345 15.0229 3.00103H13.0234V1.00488H7.02061V3.00488H5.02399C5.02589 5.0073 5.02208 7.00631 5.02399 9.00873H7.02061V11.0049ZM13.0229 3.00488C13.0248 5.00603 13.021 7.00374 13.0229 9.00488H7.02399C7.02208 7.00375 7.02589 5.00602 7.02399 3.00488H13.0229Z" fill="#BDBDBD"/>
<path d="M17.0234 13.0049V11.0064H15.0234V13.0064H17.0234V17.0049H3.02344V13.0049H5.02344V11.0049H3.02344V13.0034H1.02344V17.0049V19.0049L19.0234 19.0064V13.0049H17.0234Z" fill="#BDBDBD"/>
</svg>
