<svg width="20" height="20" viewBox="0 0 20 20" fill="none" xmlns="http://www.w3.org/2000/svg">
<path d="M13.0192 13.0049H17.0192V11.0049H3.01919V13.0049H7.01919V17.0049H1.02344V19.0049H19.0192V17.0049H13.0192V13.0049ZM9.01919 17.0049V13.0049H11.0192V17.0049H9.01919Z" fill="#BDBDBD"/>
<path d="M3.01855 1.00488H17.0186V3.00488H3.01855V1.00488Z" fill="#BDBDBD"/>
<path d="M3.01813 3.00098H1.01813C1.02003 5.66874 1.01622 8.33195 1.01813 10.9997H3.01813C3.01622 8.33195 3.02003 5.66874 3.01813 3.00098Z" fill="#BDBDBD"/>
<path d="M17.0191 3.0061C17.021 5.67385 17.0172 8.33706 17.0191 11.0048H19.0191C19.0172 8.33706 19.021 5.67385 19.0191 3.0061H17.0191Z" fill="#BDBDBD"/>
<path d="M13.0186 5.00488H15.0186V7.00488H13.0186V5.00488Z" fill="#BDBDBD"/>
</svg>
